<svg width="1402" height="80" viewBox="0 0 1402 80" fill="none" xmlns="http://www.w3.org/2000/svg">
<path d="M923.432 53L953.058 79L982.685 53" stroke="#8E8E8E"/>
<path d="M938.535 53L953.639 66L968.743 53" stroke="#8E8E8E"/>
<path d="M1079.12 53H982.685" stroke="white"/>
<path d="M923.432 53H827" stroke="white"/>
<path d="M324 53L576.116 53" stroke="#8E8E8E"/>
<path d="M576 53L828.116 53" stroke="#8E8E8E"/>
<path d="M1387.06 1L1359.17 27" stroke="#8E8E8E"/>
<path d="M1401 14L1373.12 40" stroke="#8E8E8E"/>
<path d="M1359.17 27L1107.06 27" stroke="#8E8E8E"/>
<path d="M1359.17 27L1107.06 27" stroke="#8E8E8E"/>
<path d="M1107.06 27L1079.17 53" stroke="#8E8E8E"/>
<path d="M14.9419 1L42.8257 27" stroke="#8E8E8E"/>
<path d="M1.00003 14L28.8839 40" stroke="#8E8E8E"/>
<path d="M42.8257 27L294.942 27" stroke="#8E8E8E"/>
<path d="M294.942 27L322.826 53" stroke="#8E8E8E"/>
</svg>
