<svg width="1402" height="80" viewBox="0 0 1402 80" fill="none" xmlns="http://www.w3.org/2000/svg">
<path d="M672.535 53L702.162 79L731.788 53" stroke="#8E8E8E"/>
<path d="M687.639 53L702.743 66L717.846 53" stroke="#8E8E8E"/>
<path d="M828.22 53H731.788" stroke="white" />
<path d="M672.535 53H576.104" stroke="white"/>
<path d="M828.22 53L1080.34 53" stroke="#8E8E8E"/>
<path d="M323.988 53L576.104 53" stroke="#8E8E8E"/>
<path d="M1387.06 1L1359.17 27" stroke="#8E8E8E"/>
<path d="M1401 14L1373.12 40" stroke="#8E8E8E"/>
<path d="M1359.17 27L1107.06 27" stroke="#8E8E8E"/>
<path d="M1359.17 27L1107.06 27" stroke="#8E8E8E"/>
<path d="M1107.06 27L1079.17 53" stroke="#8E8E8E"/>
<path d="M14.9419 1L42.8257 27" stroke="#8E8E8E"/>
<path d="M1.00003 14L28.8839 40" stroke="#8E8E8E"/>
<path d="M42.8257 27L294.942 27" stroke="#8E8E8E"/>
<path d="M294.942 27L322.826 53" stroke="#8E8E8E"/>
</svg>
