<svg width="1402" height="80" viewBox="0 0 1402 80" fill="none" xmlns="http://www.w3.org/2000/svg">
<path d="M419.432 53L449.058 79L478.685 53" stroke="#8E8E8E"/>
<path d="M434.535 53L449.639 66L464.743 53" stroke="#8E8E8E"/>
<path d="M575.116 53H478.685" stroke="white"/>
<path d="M419.432 53H323" stroke="white"/>
<path d="M827 53L1079.12 53" stroke="#8E8E8E"/>
<path d="M575 53L827.116 53" stroke="#8E8E8E"/>
<path d="M1387.06 1L1359.17 27" stroke="#8E8E8E"/>
<path d="M1401 14L1373.12 40" stroke="#8E8E8E"/>
<path d="M1359.17 27L1107.06 27" stroke="#8E8E8E"/>
<path d="M1359.17 27L1107.06 27" stroke="#8E8E8E"/>
<path d="M1107.06 27L1079.17 53" stroke="#8E8E8E"/>
<path d="M14.9419 1L42.8257 27" stroke="#8E8E8E"/>
<path d="M1.00003 14L28.8839 40" stroke="#8E8E8E"/>
<path d="M42.8257 27L294.942 27" stroke="#8E8E8E"/>
<path d="M294.942 27L322.826 53" stroke="#8E8E8E"/>
</svg>
